<svg xmlns="http://www.w3.org/2000/svg" width="139" height="42" viewBox="0 0 139 42">
    <g fill="none" fill-rule="evenodd" transform="translate(-1)">
        <circle cx="117" cy="21" r="21" fill="#3CC"/>
        <circle cx="137.5" cy="25.5" r="2.5" fill="#A55CFF"/>
        <path fill="#A55CFF" d="M6.544 28.24c-2.592 0-4.272-1.2-5.376-2.712l1.944-2.016c.984 1.272 1.968 1.992 3.384 1.992 1.584 0 2.664-1.056 2.664-3.312V11.2h3.048v11.088c0 1.992-.6 3.48-1.584 4.464-.984.984-2.4 1.488-4.08 1.488zm14.032.024c-2.376 0-4.488-1.368-4.488-3.912v-.048c0-2.736 2.136-4.08 5.232-4.08 1.416 0 2.424.216 3.408.528v-.312c0-1.8-1.104-2.76-3.144-2.76-1.416 0-2.472.312-3.624.792l-.768-2.28c1.392-.624 2.76-1.032 4.776-1.032 1.896 0 3.312.504 4.2 1.416.936.912 1.368 2.256 1.368 3.912V28h-2.832v-1.584c-.864 1.032-2.184 1.848-4.128 1.848zm.816-2.112c1.92 0 3.384-1.104 3.384-2.712v-.864c-.744-.288-1.728-.504-2.88-.504-1.872 0-2.976.792-2.976 2.112v.048c0 1.224 1.08 1.92 2.472 1.92zm16.48 2.136c-3.768 0-6.552-2.952-6.552-6.552v-.048c0-3.6 2.784-6.624 6.6-6.624 2.376 0 3.864.888 5.064 2.184l-1.824 1.944c-.888-.936-1.824-1.584-3.264-1.584-2.112 0-3.672 1.824-3.672 4.032v.048c0 2.256 1.56 4.056 3.792 4.056 1.368 0 2.376-.624 3.288-1.56l1.752 1.728c-1.248 1.392-2.712 2.376-5.184 2.376zM46.72 28V10.48h2.904v10.464l5.256-5.616h3.528l-5.04 5.16L58.576 28h-3.408l-3.744-5.496-1.8 1.872V28H46.72zm18.376.264c-2.376 0-4.488-1.368-4.488-3.912v-.048c0-2.736 2.136-4.08 5.232-4.08 1.416 0 2.424.216 3.408.528v-.312c0-1.8-1.104-2.76-3.144-2.76-1.416 0-2.472.312-3.624.792l-.768-2.28c1.392-.624 2.76-1.032 4.776-1.032 1.896 0 3.312.504 4.2 1.416.936.912 1.368 2.256 1.368 3.912V28h-2.832v-1.584c-.864 1.032-2.184 1.848-4.128 1.848zm.816-2.112c1.92 0 3.384-1.104 3.384-2.712v-.864c-.744-.288-1.728-.504-2.88-.504-1.872 0-2.976.792-2.976 2.112v.048c0 1.224 1.08 1.92 2.472 1.92zm14.752 2.064c-2.136 0-3.648-.936-3.648-3.72v-6.672h-1.608v-2.496h1.608v-3.48h2.904v3.48h3.408v2.496H79.92v6.216c0 1.128.576 1.584 1.56 1.584.648 0 1.224-.144 1.8-.432v2.376c-.72.408-1.512.648-2.616.648zM87.28 28V10.48h2.904v6.792c.816-1.176 1.992-2.208 3.96-2.208 2.856 0 4.512 1.92 4.512 4.848V28h-2.904v-7.2c0-1.968-.984-3.096-2.712-3.096-1.68 0-2.856 1.176-2.856 3.144V28H87.28z"/>
        <path fill="#FFF" d="M109.024 28.288c-3.864 0-6.72-2.952-6.72-6.552v-.048c0-3.624 2.88-6.624 6.768-6.624s6.744 2.952 6.744 6.576v.048c0 3.6-2.88 6.6-6.792 6.6zm.048-2.544c2.352 0 3.84-1.824 3.84-4.008v-.048c0-2.232-1.608-4.08-3.888-4.08-2.328 0-3.816 1.824-3.816 4.032v.048c0 2.208 1.608 4.056 3.864 4.056zM119.768 28V15.328h2.904v1.944c.816-1.176 1.992-2.208 3.96-2.208 2.856 0 4.512 1.92 4.512 4.848V28h-2.904v-7.2c0-1.968-.984-3.096-2.712-3.096-1.68 0-2.856 1.176-2.856 3.144V28h-2.904z"/>
    </g>
</svg>
