<svg xmlns="http://www.w3.org/2000/svg" width="141" height="48" viewBox="0 0 141 48">
    <g fill="none" fill-rule="evenodd">
        <path fill="#FFAA1F" d="M0 0h48v48H0z"/>
        <path fill="#FFF" d="M33.576 19.96V37H31.92v-7.968H21.816V37h-1.68V19.96h1.68v7.584H31.92V19.96h1.656zm6.59 17.28c-.591 0-1.14-.1-1.643-.3a4.149 4.149 0 0 1-1.32-.828 3.737 3.737 0 0 1-1.188-2.76c0-.544.128-1.048.384-1.512a3.66 3.66 0 0 1 1.08-1.2 5.288 5.288 0 0 1 1.656-.78 7.625 7.625 0 0 1 2.112-.276c.64 0 1.288.056 1.944.168.656.112 1.24.272 1.752.48v-1.128c0-1.104-.312-1.98-.936-2.628-.624-.648-1.488-.972-2.592-.972-.64 0-1.296.128-1.968.384a9.491 9.491 0 0 0-2.04 1.104l-.576-1.08c1.616-1.088 3.184-1.632 4.704-1.632 1.568 0 2.8.44 3.696 1.32.896.88 1.344 2.096 1.344 3.648v5.64c0 .448.2.672.6.672V37a3.89 3.89 0 0 1-.624.072c-.416 0-.74-.104-.972-.312-.232-.208-.356-.496-.372-.864l-.048-.984a5.672 5.672 0 0 1-2.172 1.728c-.872.4-1.812.6-2.82.6zm.385-1.248c.848 0 1.628-.16 2.34-.48.712-.32 1.252-.744 1.62-1.272.144-.144.252-.3.324-.468.072-.168.108-.324.108-.468v-2.04a10.003 10.003 0 0 0-1.692-.48 9.472 9.472 0 0 0-1.788-.168c-1.152 0-2.088.24-2.808.72-.72.48-1.08 1.112-1.08 1.896 0 .384.076.744.228 1.08.152.336.36.628.624.876s.58.444.948.588c.368.144.76.216 1.176.216z"/>
        <path fill="#000" d="M48.87 30.712c0-.88.152-1.712.456-2.496a6.233 6.233 0 0 1 1.284-2.052 5.999 5.999 0 0 1 1.98-1.38c.768-.336 1.616-.504 2.544-.504 1.184 0 2.216.268 3.096.804a5.164 5.164 0 0 1 1.992 2.172l-1.584.504a3.802 3.802 0 0 0-1.476-1.5 4.168 4.168 0 0 0-2.1-.54c-.64 0-1.236.128-1.788.384a4.56 4.56 0 0 0-1.44 1.044c-.408.44-.728.964-.96 1.572a5.543 5.543 0 0 0-.348 1.992 5.5 5.5 0 0 0 .36 1.992c.24.624.568 1.164.984 1.62.416.456.9.816 1.452 1.08.552.264 1.14.396 1.764.396.4 0 .796-.056 1.188-.168a4.59 4.59 0 0 0 1.092-.468c.336-.2.624-.428.864-.684.24-.256.408-.528.504-.816l1.608.48a4.09 4.09 0 0 1-.768 1.236 5.298 5.298 0 0 1-1.188.984 5.83 5.83 0 0 1-1.512.648 6.434 6.434 0 0 1-1.716.228 6.094 6.094 0 0 1-2.52-.516 6.11 6.11 0 0 1-1.992-1.416 6.575 6.575 0 0 1-1.308-2.076 6.752 6.752 0 0 1-.468-2.52zM71.468 37l-4.608-6.408-2.688 2.496V37H62.54V19.48h1.632v11.904l7.032-6.864h1.848l-5.112 5.112L73.244 37zM77.867 37.24c-.592 0-1.14-.1-1.644-.3a4.149 4.149 0 0 1-1.32-.828 3.737 3.737 0 0 1-1.188-2.76c0-.544.128-1.048.384-1.512a3.66 3.66 0 0 1 1.08-1.2 5.288 5.288 0 0 1 1.656-.78 7.625 7.625 0 0 1 2.112-.276c.64 0 1.288.056 1.944.168.656.112 1.24.272 1.752.48v-1.128c0-1.104-.312-1.98-.936-2.628-.624-.648-1.488-.972-2.592-.972-.64 0-1.296.128-1.968.384a9.491 9.491 0 0 0-2.04 1.104l-.576-1.08c1.616-1.088 3.184-1.632 4.704-1.632 1.568 0 2.8.44 3.696 1.32.896.88 1.344 2.096 1.344 3.648v5.64c0 .448.2.672.6.672V37a3.89 3.89 0 0 1-.624.072c-.416 0-.74-.104-.972-.312-.232-.208-.356-.496-.372-.864l-.048-.984a5.672 5.672 0 0 1-2.172 1.728c-.872.4-1.812.6-2.82.6zm.384-1.248c.848 0 1.628-.16 2.34-.48.712-.32 1.252-.744 1.62-1.272.144-.144.252-.3.324-.468.072-.168.108-.324.108-.468v-2.04a10.003 10.003 0 0 0-1.692-.48 9.472 9.472 0 0 0-1.788-.168c-1.152 0-2.088.24-2.808.72-.72.48-1.08 1.112-1.08 1.896 0 .384.076.744.228 1.08.152.336.36.628.624.876s.58.444.948.588c.368.144.76.216 1.176.216zM93.338 36.4a9.282 9.282 0 0 1-.42.192 7.445 7.445 0 0 1-1.452.456 4.65 4.65 0 0 1-.96.096A3.49 3.49 0 0 1 89.498 37a2.35 2.35 0 0 1-.84-.444c-.24-.2-.432-.452-.576-.756a2.44 2.44 0 0 1-.216-1.056v-8.952h-1.728v-1.296h1.728v-4.224h1.632v4.224h2.88v1.296h-2.88v8.496c.032.464.196.804.492 1.02.296.216.636.324 1.02.324.464 0 .872-.076 1.224-.228.352-.152.576-.26.672-.324l.432 1.32zM105.52 37h-1.631v-6.984c0-1.424-.244-2.488-.732-3.192-.488-.704-1.204-1.056-2.148-1.056a3.66 3.66 0 0 0-1.38.276 5.195 5.195 0 0 0-2.328 1.884 4.774 4.774 0 0 0-.66 1.416V37h-1.632V19.48h1.632v7.848a5.67 5.67 0 0 1 2.064-2.232 5.332 5.332 0 0 1 2.856-.816c.72 0 1.328.132 1.824.396s.904.632 1.224 1.104c.32.472.552 1.04.696 1.704.144.664.216 1.396.216 2.196V37zM113.96 37.24c-.913 0-1.745-.172-2.497-.516a6.134 6.134 0 0 1-1.956-1.404 6.37 6.37 0 0 1-1.284-2.064 6.778 6.778 0 0 1-.456-2.472c0-.88.156-1.712.468-2.496a6.54 6.54 0 0 1 1.296-2.064 6.294 6.294 0 0 1 1.956-1.416 5.758 5.758 0 0 1 2.472-.528c.896 0 1.724.176 2.484.528.76.352 1.416.824 1.968 1.416a6.54 6.54 0 0 1 1.296 2.064c.312.784.468 1.616.468 2.496 0 .864-.152 1.688-.456 2.472a6.37 6.37 0 0 1-1.284 2.064 6.097 6.097 0 0 1-1.968 1.404c-.76.344-1.596.516-2.508.516zm-4.537-6.432c0 .704.12 1.356.36 1.956.24.6.564 1.128.972 1.584.408.456.888.812 1.44 1.068.552.256 1.14.384 1.764.384.624 0 1.212-.132 1.764-.396a4.685 4.685 0 0 0 1.452-1.08c.416-.456.744-.988.984-1.596.24-.608.36-1.264.36-1.968 0-.688-.12-1.34-.36-1.956a5.113 5.113 0 0 0-.984-1.608 4.685 4.685 0 0 0-1.452-1.08 4.037 4.037 0 0 0-1.764-.396 3.96 3.96 0 0 0-1.752.396 4.643 4.643 0 0 0-1.44 1.092 5.264 5.264 0 0 0-.984 1.62 5.406 5.406 0 0 0-.36 1.98zM133.054 37h-1.632v-6.984c0-1.488-.22-2.568-.66-3.24-.44-.672-1.116-1.008-2.028-1.008-.48 0-.96.088-1.44.264-.48.176-.924.424-1.332.744-.408.32-.772.7-1.092 1.14-.32.44-.552.916-.696 1.428V37h-1.632V24.496h1.488v2.832c.512-.912 1.244-1.648 2.196-2.208a6.021 6.021 0 0 1 3.108-.84c.688 0 1.272.128 1.752.384s.864.616 1.152 1.08c.288.464.496 1.032.624 1.704.128.672.192 1.416.192 2.232V37z"/>
        <path fill="#FC9E03" d="M137 34h4v4h-4z"/>
    </g>
</svg>
